<svg width="512" height="513" viewBox="0 0 512 513" fill="none" xmlns="http://www.w3.org/2000/svg"><rect x="183.155" y="77.214" width="191.903" height="103.101" rx="15.717" fill="url(#a)"/><rect x="183.155" y="77.214" width="191.903" height="103.101" rx="15.717" fill="url(#b)" fill-opacity=".8"/><rect x="117.273" y="123.362" width="278.212" height="265.709" rx="15.717" fill="url(#c)"/><rect x="117.273" y="123.362" width="278.212" height="265.709" rx="15.717" fill="url(#d)" fill-opacity=".8"/><rect x="117.273" y="123.362" width="278.212" height="265.709" rx="15.717" fill="url(#e)" fill-opacity=".2"/><path d="M385.629 434.121h-259.27c-16.284 0-29.483-12.746-29.483-28.471V183.587c0-15.725 13.199-28.471 29.483-28.471h65.069c9.089 0 17.67 4.05 23.255 10.973l29.391 36.425c3.194 3.956 8.094 6.269 13.288 6.269h128.267c16.283 0 29.483 12.747 29.483 28.471v168.4c0 15.725-13.2 28.471-29.483 28.471v-.004Z" fill="url(#f)"/><path d="M385.629 434.121h-259.27c-16.284 0-29.483-12.746-29.483-28.471V183.587c0-15.725 13.199-28.471 29.483-28.471h65.069c9.089 0 17.67 4.05 23.255 10.973l29.391 36.425c3.194 3.956 8.094 6.269 13.288 6.269h128.267c16.283 0 29.483 12.747 29.483 28.471v168.4c0 15.725-13.2 28.471-29.483 28.471v-.004Z" fill="url(#g)" fill-opacity=".27"/><path d="M385.629 434.121h-259.27c-16.284 0-29.483-12.746-29.483-28.471V183.587c0-15.725 13.199-28.471 29.483-28.471h65.069c9.089 0 17.67 4.05 23.255 10.973l29.391 36.425c3.194 3.956 8.094 6.269 13.288 6.269h128.267c16.283 0 29.483 12.747 29.483 28.471v168.4c0 15.725-13.2 28.471-29.483 28.471v-.004Z" fill="url(#h)" fill-opacity=".6"/><path d="M385.629 434.121h-259.27c-16.284 0-29.483-12.746-29.483-28.471V183.587c0-15.725 13.199-28.471 29.483-28.471h65.069c9.089 0 17.67 4.05 23.255 10.973l29.391 36.425c3.194 3.956 8.094 6.269 13.288 6.269h128.267c16.283 0 29.483 12.747 29.483 28.471v168.4c0 15.725-13.2 28.471-29.483 28.471v-.004Z" fill="url(#i)" fill-opacity=".6"/><path d="M385.629 434.121h-259.27c-16.284 0-29.483-12.746-29.483-28.471V183.587c0-15.725 13.199-28.471 29.483-28.471h65.069c9.089 0 17.67 4.05 23.255 10.973l29.391 36.425c3.194 3.956 8.094 6.269 13.288 6.269h128.267c16.283 0 29.483 12.747 29.483 28.471v168.4c0 15.725-13.2 28.471-29.483 28.471v-.004Z" fill="url(#j)" fill-opacity=".6"/><path d="M333.806 270.353c.462-.091.94-.138 1.43-.138h80.462c12.348 0 22.358 10.01 22.358 22.358v95.02c0 26.459-21.45 47.909-47.91 47.909H121.854c-26.46 0-47.91-21.45-47.91-47.909v-95.02c0-12.348 10.01-22.358 22.358-22.358h77.667c.49 0 .968.047 1.43.138h158.407Z" fill="url(#k)"/><path d="M333.806 270.353c.462-.091.94-.138 1.43-.138h80.462c12.348 0 22.358 10.01 22.358 22.358v95.02c0 26.459-21.45 47.909-47.91 47.909H121.854c-26.46 0-47.91-21.45-47.91-47.909v-95.02c0-12.348 10.01-22.358 22.358-22.358h77.667c.49 0 .968.047 1.43.138h158.407Z" fill="url(#l)" fill-opacity=".8"/><path d="M333.806 270.353c.462-.091.94-.138 1.43-.138h80.462c12.348 0 22.358 10.01 22.358 22.358v95.02c0 26.459-21.45 47.909-47.91 47.909H121.854c-26.46 0-47.91-21.45-47.91-47.909v-95.02c0-12.348 10.01-22.358 22.358-22.358h77.667c.49 0 .968.047 1.43.138h158.407Z" fill="url(#m)"/><path d="M333.806 270.353c.462-.091.94-.138 1.43-.138h80.462c12.348 0 22.358 10.01 22.358 22.358v95.02c0 26.459-21.45 47.909-47.91 47.909H121.854c-26.46 0-47.91-21.45-47.91-47.909v-95.02c0-12.348 10.01-22.358 22.358-22.358h77.667c.49 0 .968.047 1.43.138h158.407Z" fill="url(#n)" fill-opacity=".65"/><path d="M333.806 270.353c.462-.091.94-.138 1.43-.138h80.462c12.348 0 22.358 10.01 22.358 22.358v95.02c0 26.459-21.45 47.909-47.91 47.909H121.854c-26.46 0-47.91-21.45-47.91-47.909v-95.02c0-12.348 10.01-22.358 22.358-22.358h77.667c.49 0 .968.047 1.43.138h158.407Z" fill="url(#o)" fill-opacity=".7"/><path d="M204.137 339.644c0-6.944 5.629-12.573 12.573-12.573h84.853c6.944 0 12.574 5.629 12.574 12.573v17.526l-26.949 29.901H216.71c-6.944 0-12.573-5.629-12.573-12.574v-34.853Z" fill="url(#p)"/><path d="M204.137 339.644c0-6.944 5.629-12.573 12.573-12.573h84.853c6.944 0 12.574 5.629 12.574 12.573v17.526l-26.949 29.901H216.71c-6.944 0-12.573-5.629-12.573-12.574v-34.853Z" fill="url(#q)"/><path d="M204.137 339.644c0-6.944 5.629-12.573 12.573-12.573h84.853c6.944 0 12.574 5.629 12.574 12.573v17.526l-26.949 29.901H216.71c-6.944 0-12.573-5.629-12.573-12.574v-34.853Z" fill="url(#r)"/><path d="M201.137 335.926c0-6.944 5.629-12.573 12.573-12.573h84.853c6.944 0 12.574 5.629 12.574 12.573v17.526l-26.949 29.901H213.71c-6.944 0-12.573-5.629-12.573-12.573v-34.854Z" fill="url(#s)"/><path d="M201.137 335.926c0-6.944 5.629-12.573 12.573-12.573h84.853c6.944 0 12.574 5.629 12.574 12.573v17.526l-26.949 29.901H213.71c-6.944 0-12.573-5.629-12.573-12.573v-34.854Z" fill="url(#t)" fill-opacity=".27"/><path d="m284.202 360.148.088 23.205 26.847-29.795-21.003-.098c-3.276 0-5.932 2.995-5.932 6.688Z" fill="url(#u)"/><path d="M147.637 182.065a1.75 1.75 0 1 1-3.499.001 1.75 1.75 0 0 1 3.499-.001Zm47.5 3.5a1.75 1.75 0 1 1-3.499.001 1.75 1.75 0 0 1 3.499-.001Zm12.75 33.75a1.75 1.75 0 1 0 .001-3.499 1.75 1.75 0 0 0-.001 3.499Zm-1.75 23.75a1.75 1.75 0 1 1-3.425-.51 1.729 1.729 0 0 1 .752-.977 1.75 1.75 0 0 1 2.673 1.487Zm19.75-37.75a1.75 1.75 0 1 0 .001-3.499 1.75 1.75 0 0 0-.001 3.499Zm57.75 46.25a1.75 1.75 0 1 1-3.499.001 1.75 1.75 0 0 1 3.499-.001Zm-156.25-28.75a1.75 1.75 0 1 0 .001-3.499 1.75 1.75 0 0 0-.001 3.499Zm-5.25 8.75a1.75 1.75 0 1 1-3.499.001 1.75 1.75 0 0 1 3.499-.001Zm55.75-36.25a3 3 0 1 0 0-6 3 3 0 0 0 0 6Zm37.75 46.5a3 3 0 1 1-6 0 3 3 0 0 1 6 0Zm-68.5-16.5a3 3 0 1 0 0-6 3 3 0 0 0 0 6Z" fill="#8C61C3"/><defs><linearGradient id="a" x1="363.428" y1="70.689" x2="285.061" y2="291.496" gradientUnits="userSpaceOnUse"><stop offset=".191" stop-color="#424242"/><stop offset=".357" stop-color="#655235"/><stop offset=".467" stop-color="#966823"/><stop offset=".571" stop-color="#F69400"/></linearGradient><linearGradient id="c" x1="117.273" y1="144.108" x2="124" y2="144.358" gradientUnits="userSpaceOnUse"><stop offset=".006" stop-color="#070706"/><stop offset=".674" stop-color="#706B66"/></linearGradient><linearGradient id="d" x1="251" y1="233.358" x2="287" y2="59.358" gradientUnits="userSpaceOnUse"><stop offset=".074" stop-color="#403C38"/><stop offset=".57" stop-color="#706B66" stop-opacity="0"/></linearGradient><linearGradient id="e" x1="153.225" y1="123.362" x2="153.137" y2="136.091" gradientUnits="userSpaceOnUse"><stop offset=".018" stop-color="#fff"/><stop offset=".32" stop-color="#fff" stop-opacity="0"/></linearGradient><linearGradient id="g" x1="96.876" y1="176.901" x2="104.25" y2="176.905" gradientUnits="userSpaceOnUse"><stop offset=".239" stop-color="#D70"/><stop offset=".634" stop-color="#D70" stop-opacity="0"/></linearGradient><linearGradient id="h" x1="138" y1="155.116" x2="137.915" y2="168.483" gradientUnits="userSpaceOnUse"><stop offset=".018" stop-color="#fff"/><stop offset=".32" stop-color="#fff" stop-opacity="0"/></linearGradient><linearGradient id="k" x1="256" y1="270.215" x2="256" y2="442.799" gradientUnits="userSpaceOnUse"><stop offset=".099" stop-color="#424242"/><stop offset=".516" stop-color="#424242"/><stop offset=".828" stop-color="#393939"/><stop offset=".885" stop-color="#252525"/><stop offset=".928" stop-color="#121212"/><stop offset=".975" stop-color="#434343"/></linearGradient><linearGradient id="l" x1="219.934" y1="352.859" x2="66.039" y2="352.859" gradientUnits="userSpaceOnUse"><stop offset=".835" stop-color="#434343" stop-opacity="0"/><stop offset=".912" stop-color="#232323"/><stop offset="1" stop-color="#434343" stop-opacity="0"/></linearGradient><linearGradient id="m" x1="256" y1="270.215" x2="256" y2="442.799" gradientUnits="userSpaceOnUse"><stop offset=".027" stop-color="#676767"/><stop offset=".099" stop-color="#676767" stop-opacity="0"/></linearGradient><linearGradient id="n" x1="442" y1="338.858" x2="271" y2="338.358" gradientUnits="userSpaceOnUse"><stop offset=".017" stop-color="#676767"/><stop offset=".098" stop-color="#676767" stop-opacity="0"/></linearGradient><linearGradient id="p" x1="314.137" y1="374.358" x2="204.137" y2="374.358" gradientUnits="userSpaceOnUse"><stop stop-color="#2E2E2E" stop-opacity="0"/><stop offset=".026" stop-color="#2E2E2E"/><stop offset=".917" stop-color="#2E2E2E"/><stop offset=".949" stop-color="#2E2E2E" stop-opacity="0"/></linearGradient><linearGradient id="q" x1="259.137" y1="382.108" x2="259.137" y2="387.071" gradientUnits="userSpaceOnUse"><stop offset=".378" stop-color="#3E3E3E" stop-opacity="0"/><stop offset="1" stop-color="#3E3E3E"/></linearGradient><linearGradient id="r" x1="292.75" y1="373.358" x2="297.437" y2="377.171" gradientUnits="userSpaceOnUse"><stop offset=".266" stop-color="#3F3F3F" stop-opacity="0"/><stop offset=".779" stop-color="#414041"/></linearGradient><linearGradient id="s" x1="287" y1="383.353" x2="229.716" y2="297.383" gradientUnits="userSpaceOnUse"><stop stop-color="#706B66"/><stop offset=".12" stop-color="#8C8782"/><stop offset=".305" stop-color="#706B66"/><stop offset=".781" stop-color="#706B66"/></linearGradient><linearGradient id="t" x1="249" y1="385.233" x2="249" y2="380.546" gradientUnits="userSpaceOnUse"><stop offset=".52" stop-color="#292724"/><stop offset="1" stop-color="#55514C" stop-opacity="0"/></linearGradient><linearGradient id="u" x1="297.669" y1="371.733" x2="274.5" y2="350.858" gradientUnits="userSpaceOnUse"><stop offset=".095" stop-color="#4E4A45"/><stop offset=".183" stop-color="#211F1D"/><stop offset=".493" stop-color="#403D39"/></linearGradient><radialGradient id="b" cx="0" cy="0" r="1" gradientUnits="userSpaceOnUse" gradientTransform="matrix(0 47.4573 -200.607 0 279.107 132.857)"><stop offset=".012" stop-color="#2D2A25"/><stop offset=".655" stop-color="#322D25" stop-opacity="0"/></radialGradient><radialGradient id="f" cx="0" cy="0" r="1" gradientUnits="userSpaceOnUse" gradientTransform="matrix(440.26923 105.24185 -109.89583 459.73872 -25.158 155.116)"><stop offset=".528" stop-color="#FFDF6D"/><stop offset=".625" stop-color="#FF831B"/><stop offset=".778" stop-color="#FF831B"/><stop offset=".866" stop-color="#B87DFB"/><stop offset=".948" stop-color="#B87DFB"/></radialGradient><radialGradient id="i" cx="0" cy="0" r="1" gradientUnits="userSpaceOnUse" gradientTransform="matrix(0 18.5 -293.97 0 320 208.858)"><stop offset=".018" stop-color="#fff"/><stop offset=".297" stop-color="#fff" stop-opacity="0"/></radialGradient><radialGradient id="j" cx="0" cy="0" r="1" gradientUnits="userSpaceOnUse" gradientTransform="rotate(143.005 83.747 128.984) scale(22.8501 159.385)"><stop offset=".018" stop-color="#fff"/><stop offset=".297" stop-color="#fff" stop-opacity="0"/></radialGradient><radialGradient id="o" cx="0" cy="0" r="1" gradientUnits="userSpaceOnUse" gradientTransform="matrix(23.30103 -21.6754 47.74868 51.32978 81.754 418.414)"><stop offset=".267" stop-color="#252525"/><stop offset=".759" stop-color="#252525" stop-opacity="0"/></radialGradient></defs></svg>